ffmpeg started on 2025-05-05 at 19:35:30
Report written to "D:\Convert\FFMetrics\reports\psnr_report-6.txt"
Log level: 32
Command line:
ffmpeg -hide_banner -nostdin -i "G:\\\xc0\xed\xe8\xec\xe5\\\xce\xed\xe3\xee\xe8\xed\xe3\xe8\\!_35_\xcb\xe5\xf2\xee_2024\\JamClub\\\xdf \xef\xe0\xf0\xe8\xf0\xee\xe2\xe0\xeb \xe2\xf1\xb8 \xe2\xf0\xe5\xec\xff, \xf7\xf2\xee\xe1\xfb \xf1\xf2\xe0\xf2\xfc \xf1\xe8\xeb\xfc\xed\xe5\xe9\xf8\xe8\xec \xe0\xe2\xe0\xed\xf2\xfe\xf0\xe8\xf1\xf2\xee\xec\\JamClub_I_Parry_Everything_03_1080p_HEVC.mkv" -i "G:\\\xc0\xed\xe8\xec\xe5\\\xce\xed\xe3\xee\xe8\xed\xe3\xe8\\!_35_\xcb\xe5\xf2\xee_2024\\JamClub\\\xdf \xef\xe0\xf0\xe8\xf0\xee\xe2\xe0\xeb \xe2\xf1\xb8 \xe2\xf0\xe5\xec\xff, \xf7\xf2\xee\xe1\xfb \xf1\xf2\xe0\xf2\xfc \xf1\xe8\xeb\xfc\xed\xe5\xe9\xf8\xe8\xec \xe0\xe2\xe0\xed\xf2\xfe\xf0\xe8\xf1\xf2\xee\xec\\JamClub_I_Parry_Everything_03_1080p.mp4" -lavfi "[0:v]settb=AVTB,setpts=PTS-STARTPTS,format=pix_fmts=yuv420p10,fps=24000/1001,scale=1920:1080:flags=bicubic[main];[1:v]settb=AVTB,setpts=PTS-STARTPTS,format=pix_fmts=yuv420p,fps=24000/1001,scale=1920:1080:flags=bicubic[ref];[main][ref]psnr=eof_action=endall:stats_file='D\\:/Convert/FFMetrics/logs/psnr_logfile-6.txt'" -f null -
Input #0, matroska,webm, from 'G:\Аниме\Онгоинги\!_35_Лето_2024\JamClub\Я парировал всё время, чтобы стать сильнейшим авантюристом\JamClub_I_Parry_Everything_03_1080p_HEVC.mkv':
  Metadata:
    COMPATIBLE_BRANDS: isomiso2avc1mp41
    MAJOR_BRAND     : isom
    MINOR_VERSION   : 512
    ENCODER         : Lavf61.7.100
  Duration: 00:24:04.78, start: -0.001000, bitrate: 1333 kb/s
  Stream #0:0: Video: hevc (Main 10), yuv420p10le(tv, bt709, progressive), 1920x1080 [SAR 1:1 DAR 16:9], 23.98 fps, 23.98 tbr, 1k tbn (default)
      Metadata:
        HANDLER_NAME    : VideoHandler
        VENDOR_ID       : [0][0][0][0]
        ENCODER         : Lavc61.19.100 libx265
        BPS             : 1135868
        DURATION        : 00:24:04.651708333
        NUMBER_OF_FRAMES: 34637
        NUMBER_OF_BYTES : 205116784
        _STATISTICS_WRITING_APP: mkvpropedit v66.0.0 ('Josie') 64-bit
        _STATISTICS_WRITING_DATE_UTC: 2025-05-05 10:05:57
        _STATISTICS_TAGS: BPS DURATION NUMBER_OF_FRAMES NUMBER_OF_BYTES
  Stream #0:1(eng): Audio: aac (LC), 48000 Hz, stereo, fltp (default)
      Metadata:
        HANDLER_NAME    : SoundHandler
        VENDOR_ID       : [0][0][0][0]
        ENCODER         : Lavc61.19.100 aac
        BPS             : 194056
        DURATION        : 00:24:04.739000000
        NUMBER_OF_FRAMES: 67723
        NUMBER_OF_BYTES : 35045058
        _STATISTICS_WRITING_APP: mkvpropedit v66.0.0 ('Josie') 64-bit
        _STATISTICS_WRITING_DATE_UTC: 2025-05-05 10:05:57
        _STATISTICS_TAGS: BPS DURATION NUMBER_OF_FRAMES NUMBER_OF_BYTES
Input #1, mov,mp4,m4a,3gp,3g2,mj2, from 'G:\Аниме\Онгоинги\!_35_Лето_2024\JamClub\Я парировал всё время, чтобы стать сильнейшим авантюристом\JamClub_I_Parry_Everything_03_1080p.mp4':
  Metadata:
    major_brand     : isom
    minor_version   : 512
    compatible_brands: isomiso2avc1mp41
    encoder         : Lavf60.16.100
  Duration: 00:24:04.76, start: 0.000000, bitrate: 4851 kb/s
  Stream #1:0[0x1](und): Video: h264 (High) (avc1 / 0x31637661), yuv420p(progressive), 1920x1080 [SAR 1:1 DAR 16:9], 4653 kb/s, 23.98 fps, 23.98 tbr, 90k tbn (default)
      Metadata:
        handler_name    : VideoHandler
        vendor_id       : [0][0][0][0]
  Stream #1:1[0x2](eng): Audio: aac (LC) (mp4a / 0x6134706D), 48000 Hz, stereo, fltp, 191 kb/s (default)
      Metadata:
        handler_name    : SoundHandler
        vendor_id       : [0][0][0][0]
Stream mapping:
  Stream #0:0 (hevc) -> settb:default
  Stream #1:0 (h264) -> settb:default
  psnr:default -> Stream #0:0 (wrapped_avframe)
  Stream #0:1 -> #0:1 (aac (native) -> pcm_s16le (native))
Output #0, null, to 'pipe:':
  Metadata:
    COMPATIBLE_BRANDS: isomiso2avc1mp41
    MAJOR_BRAND     : isom
    MINOR_VERSION   : 512
    encoder         : Lavf61.7.100
  Stream #0:0: Video: wrapped_avframe, yuv420p10le(tv, bt709, progressive), 1920x1080 [SAR 1:1 DAR 16:9], q=2-31, 200 kb/s, 23.98 fps, 23.98 tbn
      Metadata:
        encoder         : Lavc61.19.100 wrapped_avframe
  Stream #0:1(eng): Audio: pcm_s16le, 48000 Hz, stereo, s16, 1536 kb/s (default)
      Metadata:
        HANDLER_NAME    : SoundHandler
        VENDOR_ID       : [0][0][0][0]
        _STATISTICS_TAGS: BPS DURATION NUMBER_OF_FRAMES NUMBER_OF_BYTES
        BPS             : 194056
        DURATION        : 00:24:04.739000000
        NUMBER_OF_FRAMES: 67723
        NUMBER_OF_BYTES : 35045058
        _STATISTICS_WRITING_APP: mkvpropedit v66.0.0 ('Josie') 64-bit
        _STATISTICS_WRITING_DATE_UTC: 2025-05-05 10:05:57
        encoder         : Lavc61.19.100 pcm_s16le
frame=  103 fps=0.0 q=-0.0 size=N/A time=00:00:04.29 bitrate=N/A speed= 8.4x    frame=  253 fps=248 q=-0.0 size=N/A time=00:00:10.55 bitrate=N/A speed=10.4x    frame=  440 fps=286 q=-0.0 size=N/A time=00:00:18.35 bitrate=N/A speed=11.9x    frame=  702 fps=340 q=-0.0 size=N/A time=00:00:29.27 bitrate=N/A speed=14.2x    frame=  942 fps=364 q=-0.0 size=N/A time=00:00:39.28 bitrate=N/A speed=15.2x    frame= 1200 fps=387 q=-0.0 size=N/A time=00:00:50.05 bitrate=N/A speed=16.1x    frame= 1441 fps=398 q=-0.0 size=N/A time=00:01:00.10 bitrate=N/A speed=16.6x    frame= 1696 fps=409 q=-0.0 size=N/A time=00:01:10.73 bitrate=N/A speed=17.1x    frame= 1908 fps=411 q=-0.0 size=N/A time=00:01:19.57 bitrate=N/A speed=17.1x    frame= 2152 fps=417 q=-0.0 size=N/A time=00:01:29.75 bitrate=N/A speed=17.4x    frame= 2346 fps=413 q=-0.0 size=N/A time=00:01:37.84 bitrate=N/A speed=17.2x    frame= 2517 fps=407 q=-0.0 size=N/A time=00:01:44.97 bitrate=N/A speed=  17x    frame= 2693 fps=401 q=-0.0 size=N/A time=00:01:52.32 bitrate=N/A speed=16.7x    frame= 2897 fps=400 q=-0.0 size=N/A time=00:02:00.82 bitrate=N/A speed=16.7x    frame= 3093 fps=400 q=-0.0 size=N/A time=00:02:09.00 bitrate=N/A speed=16.7x    frame= 3272 fps=396 q=-0.0 size=N/A time=00:02:16.46 bitrate=N/A speed=16.5x    frame= 3413 fps=389 q=-0.0 size=N/A time=00:02:22.35 bitrate=N/A speed=16.2x    frame= 3566 fps=384 q=-0.0 size=N/A time=00:02:28.73 bitrate=N/A speed=  16x    frame= 3797 fps=387 q=-0.0 size=N/A time=00:02:38.36 bitrate=N/A speed=16.2x    frame= 4013 fps=389 q=-0.0 size=N/A time=00:02:47.37 bitrate=N/A speed=16.2x    frame= 4224 fps=390 q=-0.0 size=N/A time=00:02:56.17 bitrate=N/A speed=16.3x    frame= 4457 fps=393 q=-0.0 size=N/A time=00:03:05.89 bitrate=N/A speed=16.4x    frame= 4626 fps=390 q=-0.0 size=N/A time=00:03:12.94 bitrate=N/A speed=16.2x    frame= 4813 fps=389 q=-0.0 size=N/A time=00:03:20.74 bitrate=N/A speed=16.2x    frame= 5059 fps=392 q=-0.0 size=N/A time=00:03:31.00 bitrate=N/A speed=16.4x    frame= 5324 fps=397 q=-0.0 size=N/A time=00:03:42.05 bitrate=N/A speed=16.5x    frame= 5578 fps=400 q=-0.0 size=N/A time=00:03:52.64 bitrate=N/A speed=16.7x    frame= 5801 fps=401 q=-0.0 size=N/A time=00:04:01.95 bitrate=N/A speed=16.7x    frame= 6020 fps=402 q=-0.0 size=N/A time=00:04:11.08 bitrate=N/A speed=16.8x    frame= 6260 fps=404 q=-0.0 size=N/A time=00:04:21.09 bitrate=N/A speed=16.9x    frame= 6431 fps=402 q=-0.0 size=N/A time=00:04:28.22 bitrate=N/A speed=16.8x    frame= 6632 fps=402 q=-0.0 size=N/A time=00:04:36.60 bitrate=N/A speed=16.8x    frame= 6901 fps=405 q=-0.0 size=N/A time=00:04:47.82 bitrate=N/A speed=16.9x    frame= 7136 fps=407 q=-0.0 size=N/A time=00:04:57.63 bitrate=N/A speed=  17x    frame= 7367 fps=408 q=-0.0 size=N/A time=00:05:07.26 bitrate=N/A speed=  17x    frame= 7567 fps=408 q=-0.0 size=N/A time=00:05:15.60 bitrate=N/A speed=  17x    frame= 7824 fps=410 q=-0.0 size=N/A time=00:05:26.32 bitrate=N/A speed=17.1x    frame= 8046 fps=410 q=-0.0 size=N/A time=00:05:35.58 bitrate=N/A speed=17.1x    frame= 8292 fps=412 q=-0.0 size=N/A time=00:05:45.84 bitrate=N/A speed=17.2x    frame= 8584 fps=416 q=-0.0 size=N/A time=00:05:58.02 bitrate=N/A speed=17.4x    frame= 8820 fps=417 q=-0.0 size=N/A time=00:06:07.86 bitrate=N/A speed=17.4x    frame= 9038 fps=417 q=-0.0 size=N/A time=00:06:16.95 bitrate=N/A speed=17.4x    frame= 9249 fps=417 q=-0.0 size=N/A time=00:06:25.76 bitrate=N/A speed=17.4x    frame= 9499 fps=419 q=-0.0 size=N/A time=00:06:36.18 bitrate=N/A speed=17.5x    frame= 9715 fps=418 q=-0.0 size=N/A time=00:06:45.19 bitrate=N/A speed=17.5x    frame= 9963 fps=420 q=-0.0 size=N/A time=00:06:55.54 bitrate=N/A speed=17.5x    frame=10237 fps=422 q=-0.0 size=N/A time=00:07:06.96 bitrate=N/A speed=17.6x    frame=10486 fps=423 q=-0.0 size=N/A time=00:07:17.35 bitrate=N/A speed=17.7x    frame=10727 fps=425 q=-0.0 size=N/A time=00:07:27.40 bitrate=N/A speed=17.7x    frame=10952 fps=425 q=-0.0 size=N/A time=00:07:36.78 bitrate=N/A speed=17.7x    frame=11159 fps=424 q=-0.0 size=N/A time=00:07:45.42 bitrate=N/A speed=17.7x    frame=11395 fps=425 q=-0.0 size=N/A time=00:07:55.26 bitrate=N/A speed=17.7x    frame=11658 fps=427 q=-0.0 size=N/A time=00:08:06.23 bitrate=N/A speed=17.8x    frame=11880 fps=427 q=-0.0 size=N/A time=00:08:15.49 bitrate=N/A speed=17.8x    frame=12114 fps=427 q=-0.0 size=N/A time=00:08:25.25 bitrate=N/A speed=17.8x    frame=12386 fps=429 q=-0.0 size=N/A time=00:08:36.59 bitrate=N/A speed=17.9x    frame=12654 fps=430 q=-0.0 size=N/A time=00:08:47.77 bitrate=N/A speed=17.9x    frame=12930 fps=432 q=-0.0 size=N/A time=00:08:59.28 bitrate=N/A speed=  18x    frame=13198 fps=434 q=-0.0 size=N/A time=00:09:10.46 bitrate=N/A speed=18.1x    frame=13449 fps=435 q=-0.0 size=N/A time=00:09:20.93 bitrate=N/A speed=18.1x    frame=13711 fps=436 q=-0.0 size=N/A time=00:09:31.86 bitrate=N/A speed=18.2x    frame=13912 fps=435 q=-0.0 size=N/A time=00:09:40.24 bitrate=N/A speed=18.1x    frame=14124 fps=435 q=-0.0 size=N/A time=00:09:49.08 bitrate=N/A speed=18.1x    frame=14402 fps=436 q=-0.0 size=N/A time=00:10:00.68 bitrate=N/A speed=18.2x    frame=14656 fps=437 q=-0.0 size=N/A time=00:10:11.27 bitrate=N/A speed=18.2x    frame=14905 fps=438 q=-0.0 size=N/A time=00:10:21.66 bitrate=N/A speed=18.3x    frame=15117 fps=437 q=-0.0 size=N/A time=00:10:30.50 bitrate=N/A speed=18.2x    frame=15354 fps=438 q=-0.0 size=N/A time=00:10:40.38 bitrate=N/A speed=18.3x    frame=15617 fps=439 q=-0.0 size=N/A time=00:10:51.35 bitrate=N/A speed=18.3x    frame=15890 fps=440 q=-0.0 size=N/A time=00:11:02.74 bitrate=N/A speed=18.4x    frame=16141 fps=441 q=-0.0 size=N/A time=00:11:13.21 bitrate=N/A speed=18.4x    frame=16340 fps=440 q=-0.0 size=N/A time=00:11:21.51 bitrate=N/A speed=18.4x    frame=16545 fps=439 q=-0.0 size=N/A time=00:11:30.06 bitrate=N/A speed=18.3x    frame=16793 fps=440 q=-0.0 size=N/A time=00:11:40.40 bitrate=N/A speed=18.4x    frame=17017 fps=440 q=-0.0 size=N/A time=00:11:49.75 bitrate=N/A speed=18.4x    frame=17180 fps=438 q=-0.0 size=N/A time=00:11:56.54 bitrate=N/A speed=18.3x    frame=17422 fps=439 q=-0.0 size=N/A time=00:12:06.64 bitrate=N/A speed=18.3x    frame=17694 fps=440 q=-0.0 size=N/A time=00:12:17.98 bitrate=N/A speed=18.3x    frame=17974 fps=441 q=-0.0 size=N/A time=00:12:29.66 bitrate=N/A speed=18.4x    frame=18201 fps=441 q=-0.0 size=N/A time=00:12:39.13 bitrate=N/A speed=18.4x    frame=18444 fps=442 q=-0.0 size=N/A time=00:12:49.26 bitrate=N/A speed=18.4x    frame=18706 fps=442 q=-0.0 size=N/A time=00:13:00.19 bitrate=N/A speed=18.4x    frame=18980 fps=443 q=-0.0 size=N/A time=00:13:11.62 bitrate=N/A speed=18.5x    frame=19160 fps=442 q=-0.0 size=N/A time=00:13:19.13 bitrate=N/A speed=18.4x    frame=19446 fps=444 q=-0.0 size=N/A time=00:13:31.06 bitrate=N/A speed=18.5x    frame=19725 fps=445 q=-0.0 size=N/A time=00:13:42.69 bitrate=N/A speed=18.5x    frame=19955 fps=445 q=-0.0 size=N/A time=00:13:52.28 bitrate=N/A speed=18.5x    frame=20226 fps=446 q=-0.0 size=N/A time=00:14:03.59 bitrate=N/A speed=18.6x    frame=20495 fps=446 q=-0.0 size=N/A time=00:14:14.81 bitrate=N/A speed=18.6x    frame=20739 fps=447 q=-0.0 size=N/A time=00:14:24.98 bitrate=N/A speed=18.6x    frame=21030 fps=448 q=-0.0 size=N/A time=00:14:37.12 bitrate=N/A speed=18.7x    frame=21310 fps=449 q=-0.0 size=N/A time=00:14:48.80 bitrate=N/A speed=18.7x    frame=21540 fps=449 q=-0.0 size=N/A time=00:14:58.39 bitrate=N/A speed=18.7x    frame=21804 fps=450 q=-0.0 size=N/A time=00:15:09.40 bitrate=N/A speed=18.8x    frame=22085 fps=451 q=-0.0 size=N/A time=00:15:21.17 bitrate=N/A speed=18.8x    frame=22354 fps=452 q=-0.0 size=N/A time=00:15:32.34 bitrate=N/A speed=18.8x    frame=22651 fps=453 q=-0.0 size=N/A time=00:15:44.73 bitrate=N/A speed=18.9x    frame=22931 fps=454 q=-0.0 size=N/A time=00:15:56.41 bitrate=N/A speed=18.9x    frame=23165 fps=454 q=-0.0 size=N/A time=00:16:06.17 bitrate=N/A speed=18.9x    frame=23418 fps=454 q=-0.0 size=N/A time=00:16:16.72 bitrate=N/A speed=18.9x    frame=23650 fps=454 q=-0.0 size=N/A time=00:16:26.40 bitrate=N/A speed=18.9x    frame=23838 fps=453 q=-0.0 size=N/A time=00:16:34.24 bitrate=N/A speed=18.9x    frame=24085 fps=453 q=-0.0 size=N/A time=00:16:44.54 bitrate=N/A speed=18.9x    frame=24319 fps=453 q=-0.0 size=N/A time=00:16:54.30 bitrate=N/A speed=18.9x    frame=24554 fps=453 q=-0.0 size=N/A time=00:17:04.10 bitrate=N/A speed=18.9x    frame=24819 fps=454 q=-0.0 size=N/A time=00:17:15.15 bitrate=N/A speed=18.9x    frame=25030 fps=454 q=-0.0 size=N/A time=00:17:23.95 bitrate=N/A speed=18.9x    frame=25286 fps=454 q=-0.0 size=N/A time=00:17:34.63 bitrate=N/A speed=18.9x    frame=25550 fps=454 q=-0.0 size=N/A time=00:17:45.64 bitrate=N/A speed=  19x    frame=25824 fps=455 q=-0.0 size=N/A time=00:17:57.07 bitrate=N/A speed=  19x    frame=26106 fps=456 q=-0.0 size=N/A time=00:18:08.83 bitrate=N/A speed=  19x    frame=26399 fps=457 q=-0.0 size=N/A time=00:18:21.05 bitrate=N/A speed=19.1x    frame=26658 fps=457 q=-0.0 size=N/A time=00:18:31.86 bitrate=N/A speed=19.1x    frame=26899 fps=458 q=-0.0 size=N/A time=00:18:41.91 bitrate=N/A speed=19.1x    frame=27157 fps=458 q=-0.0 size=N/A time=00:18:52.67 bitrate=N/A speed=19.1x    frame=27351 fps=457 q=-0.0 size=N/A time=00:19:00.76 bitrate=N/A speed=19.1x    frame=27553 fps=457 q=-0.0 size=N/A time=00:19:09.18 bitrate=N/A speed=  19x    frame=27773 fps=456 q=-0.0 size=N/A time=00:19:18.36 bitrate=N/A speed=  19x    frame=28030 fps=457 q=-0.0 size=N/A time=00:19:29.08 bitrate=N/A speed=19.1x    frame=28282 fps=457 q=-0.0 size=N/A time=00:19:39.59 bitrate=N/A speed=19.1x    frame=28544 fps=457 q=-0.0 size=N/A time=00:19:50.52 bitrate=N/A speed=19.1x    frame=28801 fps=458 q=-0.0 size=N/A time=00:20:01.24 bitrate=N/A speed=19.1x    frame=29047 fps=458 q=-0.0 size=N/A time=00:20:11.50 bitrate=N/A speed=19.1x    frame=29309 fps=458 q=-0.0 size=N/A time=00:20:22.42 bitrate=N/A speed=19.1x    frame=29554 fps=458 q=-0.0 size=N/A time=00:20:32.64 bitrate=N/A speed=19.1x    frame=29795 fps=459 q=-0.0 size=N/A time=00:20:42.69 bitrate=N/A speed=19.1x    frame=30033 fps=459 q=-0.0 size=N/A time=00:20:52.62 bitrate=N/A speed=19.1x    frame=30266 fps=458 q=-0.0 size=N/A time=00:21:02.34 bitrate=N/A speed=19.1x    frame=30491 fps=458 q=-0.0 size=N/A time=00:21:11.72 bitrate=N/A speed=19.1x    frame=30729 fps=458 q=-0.0 size=N/A time=00:21:21.65 bitrate=N/A speed=19.1x    frame=30975 fps=458 q=-0.0 size=N/A time=00:21:31.91 bitrate=N/A speed=19.1x    frame=31229 fps=459 q=-0.0 size=N/A time=00:21:42.50 bitrate=N/A speed=19.1x    frame=31512 fps=459 q=-0.0 size=N/A time=00:21:54.31 bitrate=N/A speed=19.2x    frame=31788 fps=460 q=-0.0 size=N/A time=00:22:05.82 bitrate=N/A speed=19.2x    frame=32042 fps=460 q=-0.0 size=N/A time=00:22:16.41 bitrate=N/A speed=19.2x    frame=32275 fps=460 q=-0.0 size=N/A time=00:22:26.13 bitrate=N/A speed=19.2x    frame=32530 fps=460 q=-0.0 size=N/A time=00:22:36.77 bitrate=N/A speed=19.2x    frame=32776 fps=461 q=-0.0 size=N/A time=00:22:47.03 bitrate=N/A speed=19.2x    frame=32939 fps=459 q=-0.0 size=N/A time=00:22:53.83 bitrate=N/A speed=19.2x    frame=33128 fps=459 q=-0.0 size=N/A time=00:23:01.71 bitrate=N/A speed=19.1x    frame=33349 fps=459 q=-0.0 size=N/A time=00:23:10.93 bitrate=N/A speed=19.1x    frame=33553 fps=458 q=-0.0 size=N/A time=00:23:19.43 bitrate=N/A speed=19.1x    frame=33731 fps=457 q=-0.0 size=N/A time=00:23:26.86 bitrate=N/A speed=19.1x    frame=33883 fps=456 q=-0.0 size=N/A time=00:23:33.20 bitrate=N/A speed=  19x    frame=34083 fps=456 q=-0.0 size=N/A time=00:23:41.54 bitrate=N/A speed=  19x    frame=34283 fps=455 q=-0.0 size=N/A time=00:23:49.88 bitrate=N/A speed=  19x    frame=34485 fps=455 q=-0.0 size=N/A time=00:23:58.31 bitrate=N/A speed=  19x    [Parsed_psnr_10 @ 00000218e5729cc0] PSNR y:48.161047 u:50.914031 v:51.670407 average:48.973545 min:30.511826 max:inf
[out#0/null @ 00000218df525ec0] video:14883KiB audio:270892KiB subtitle:0KiB other streams:0KiB global headers:0KiB muxing overhead: unknown
frame=34637 fps=455 q=-0.0 Lsize=N/A time=00:24:04.65 bitrate=N/A speed=  19x    
